<svg width="110" height="110" viewBox="0 0 110 110" fill="none" xmlns="http://www.w3.org/2000/svg">
<mask id="mask0_248_1547" style="mask-type:alpha" maskUnits="userSpaceOnUse" x="0" y="0" width="110" height="110">
<rect width="110" height="110" fill="#D9D9D9"/>
</mask>
<g mask="url(#mask0_248_1547)">
<path d="M45.2676 80.3229L55.0072 70.5833L64.7467 80.3229L71.1634 73.9063L61.4238 64.1667L71.278 54.4271L64.7467 48.0104L55.0072 57.75L45.2676 48.0104L38.8509 54.4271L48.5905 64.1667L38.8509 73.9063L45.2676 80.3229ZM36.6738 87.0833H73.3405V41.25H36.6738V87.0833ZM22.9238 27.5V18.3333H38.9655L43.5488 13.75H66.4655L71.0488 18.3333H87.0905V27.5H22.9238ZM36.6738 96.25C34.153 96.25 31.9958 95.3532 30.2022 93.5596C28.4055 91.7629 27.5072 89.6042 27.5072 87.0833V32.0833H82.5072V87.0833C82.5072 89.6042 81.6104 91.7629 79.8167 93.5596C78.0201 95.3532 75.8613 96.25 73.3405 96.25H36.6738Z" fill="#3CB554"/>
</g>
</svg>
