<svg width="30" height="30" viewBox="0 0 30 30" fill="none" xmlns="http://www.w3.org/2000/svg">
<mask id="mask0_248_1367" style="mask-type:alpha" maskUnits="userSpaceOnUse" x="0" y="0" width="30" height="30">
<rect width="30" height="30" fill="#D9D9D9"/>
</mask>
<g mask="url(#mask0_248_1367)">
<path d="M13.6875 20.6875L20.75 13.625L18.9687 11.8438L13.6875 17.125L11.0312 14.4688L9.25 16.25L13.6875 20.6875ZM15 27.5C13.4375 27.5 11.9742 27.2033 10.61 26.61C9.245 26.0158 8.0575 25.2133 7.0475 24.2025C6.03667 23.1925 5.23417 22.005 4.64 20.64C4.04667 19.2758 3.75 17.8125 3.75 16.25C3.75 14.6875 4.04667 13.2238 4.64 11.8588C5.23417 10.4946 6.03667 9.30708 7.0475 8.29625C8.0575 7.28625 9.245 6.48458 10.61 5.89125C11.9742 5.29708 13.4375 5 15 5C16.5625 5 18.0262 5.29708 19.3912 5.89125C20.7554 6.48458 21.9429 7.28625 22.9538 8.29625C23.9638 9.30708 24.7658 10.4946 25.36 11.8588C25.9533 13.2238 26.25 14.6875 26.25 16.25C26.25 17.8125 25.9533 19.2758 25.36 20.64C24.7658 22.005 23.9638 23.1925 22.9538 24.2025C21.9429 25.2133 20.7554 26.0158 19.3912 26.61C18.0262 27.2033 16.5625 27.5 15 27.5ZM3.4375 10L1.6875 8.25L7 2.9375L8.75 4.6875L3.4375 10ZM26.5625 10L21.25 4.6875L23 2.9375L28.3125 8.25L26.5625 10ZM15 25C17.4375 25 19.505 24.1508 21.2025 22.4525C22.9008 20.755 23.75 18.6875 23.75 16.25C23.75 13.8125 22.9008 11.7446 21.2025 10.0462C19.505 8.34875 17.4375 7.5 15 7.5C12.5625 7.5 10.495 8.34875 8.7975 10.0462C7.09917 11.7446 6.25 13.8125 6.25 16.25C6.25 18.6875 7.09917 20.755 8.7975 22.4525C10.495 24.1508 12.5625 25 15 25Z" fill="#373392"/>
</g>
</svg>
