<svg width="30" height="30" viewBox="0 0 30 30" fill="none" xmlns="http://www.w3.org/2000/svg">
<mask id="mask0_7_255" style="mask-type:alpha" maskUnits="userSpaceOnUse" x="0" y="0" width="30" height="30">
<rect width="30" height="30" fill="#D9D9D9"/>
</mask>
<g mask="url(#mask0_7_255)">
<path d="M23.5625 12.5L23.3125 11.1875C23.125 11.125 22.9533 11.0467 22.7975 10.9525C22.6408 10.8592 22.5 10.75 22.375 10.625L21.0625 11.0625L20.1875 9.5625L21.25 8.625C21.2083 8.52083 21.1875 8.4375 21.1875 8.375C21.1875 8.3125 21.1875 8.22917 21.1875 8.125C21.1875 8.02083 21.1875 7.9375 21.1875 7.875C21.1875 7.8125 21.2083 7.72917 21.25 7.625L20.1875 6.6875L21.0625 5.1875L22.375 5.625C22.5 5.5 22.6408 5.39042 22.7975 5.29625C22.9533 5.20292 23.125 5.125 23.3125 5.0625L23.5625 3.75H25.3125L25.5625 5.0625C25.75 5.125 25.9221 5.20292 26.0788 5.29625C26.2346 5.39042 26.375 5.5 26.5 5.625L27.8125 5.1875L28.6875 6.6875L27.625 7.625C27.6667 7.72917 27.6875 7.8125 27.6875 7.875C27.6875 7.9375 27.6875 8.02083 27.6875 8.125C27.6875 8.22917 27.6875 8.3125 27.6875 8.375C27.6875 8.4375 27.6667 8.52083 27.625 8.625L28.6875 9.5625L27.8125 11.0625L26.5 10.625C26.375 10.75 26.2346 10.8592 26.0788 10.9525C25.9221 11.0467 25.75 11.125 25.5625 11.1875L25.3125 12.5H23.5625ZM24.4375 9.6875C24.875 9.6875 25.245 9.53625 25.5475 9.23375C25.8492 8.93208 26 8.5625 26 8.125C26 7.6875 25.8492 7.3175 25.5475 7.015C25.245 6.71333 24.875 6.5625 24.4375 6.5625C24 6.5625 23.6304 6.71333 23.3288 7.015C23.0263 7.3175 22.875 7.6875 22.875 8.125C22.875 8.5625 23.0263 8.93208 23.3288 9.23375C23.6304 9.53625 24 9.6875 24.4375 9.6875ZM20.6875 18.75L20.5 17.8125C20.375 17.7708 20.2554 17.7238 20.1413 17.6713C20.0263 17.6196 19.9167 17.5417 19.8125 17.4375L18.9375 17.75L18.3125 16.625L19 16C19 15.9375 19 15.875 19 15.8125C19 15.75 19 15.6875 19 15.625C19 15.5625 19 15.5 19 15.4375C19 15.375 19 15.3125 19 15.25L18.3125 14.625L18.9375 13.5L19.8125 13.8125C19.8958 13.7292 20 13.6562 20.125 13.5938C20.25 13.5312 20.375 13.4792 20.5 13.4375L20.6875 12.5H21.9375L22.125 13.4375C22.25 13.4792 22.375 13.5312 22.5 13.5938C22.625 13.6562 22.7292 13.7292 22.8125 13.8125L23.6875 13.5L24.3125 14.625L23.625 15.25C23.625 15.3125 23.625 15.375 23.625 15.4375C23.625 15.5 23.625 15.5625 23.625 15.625C23.625 15.6875 23.625 15.75 23.625 15.8125C23.625 15.875 23.625 15.9375 23.625 16L24.3125 16.625L23.6875 17.75L22.8125 17.4375C22.7083 17.5417 22.5992 17.6196 22.485 17.6713C22.37 17.7238 22.25 17.7708 22.125 17.8125L21.9375 18.75H20.6875ZM21.3125 16.5625C21.5625 16.5625 21.7813 16.4688 21.9688 16.2812C22.1563 16.0937 22.25 15.875 22.25 15.625C22.25 15.375 22.1563 15.1563 21.9688 14.9688C21.7813 14.7812 21.5625 14.6875 21.3125 14.6875C21.0625 14.6875 20.8438 14.7812 20.6562 14.9688C20.4688 15.1563 20.375 15.375 20.375 15.625C20.375 15.875 20.4688 16.0937 20.6562 16.2812C20.8438 16.4688 21.0625 16.5625 21.3125 16.5625ZM11.3125 16.25C9.9375 16.25 8.76042 15.7604 7.78125 14.7812C6.80208 13.8021 6.3125 12.625 6.3125 11.25H6C5.8125 11.25 5.66167 11.1929 5.5475 11.0787C5.4325 10.9637 5.375 10.8125 5.375 10.625C5.375 10.4375 5.4325 10.2863 5.5475 10.1713C5.66167 10.0571 5.8125 10 6 10H6.3125C6.3125 9.0625 6.54167 8.21875 7 7.46875C7.45833 6.71875 8.0625 6.125 8.8125 5.6875V6.875C8.8125 7.0625 8.87 7.21333 8.985 7.3275C9.09917 7.4425 9.25 7.5 9.4375 7.5C9.625 7.5 9.77625 7.4425 9.89125 7.3275C10.0054 7.21333 10.0625 7.0625 10.0625 6.875V5.1875C10.25 5.125 10.4479 5.07792 10.6562 5.04625C10.8646 5.01542 11.0833 5 11.3125 5C11.5417 5 11.7604 5.01542 11.9688 5.04625C12.1771 5.07792 12.375 5.125 12.5625 5.1875V6.875C12.5625 7.0625 12.62 7.21333 12.735 7.3275C12.8492 7.4425 13 7.5 13.1875 7.5C13.375 7.5 13.5262 7.4425 13.6412 7.3275C13.7554 7.21333 13.8125 7.0625 13.8125 6.875V5.6875C14.5625 6.125 15.1667 6.71875 15.625 7.46875C16.0833 8.21875 16.3125 9.0625 16.3125 10H16.625C16.8125 10 16.9637 10.0571 17.0787 10.1713C17.1929 10.2863 17.25 10.4375 17.25 10.625C17.25 10.8125 17.1929 10.9637 17.0787 11.0787C16.9637 11.1929 16.8125 11.25 16.625 11.25H16.3125C16.3125 12.625 15.8229 13.8021 14.8438 14.7812C13.8646 15.7604 12.6875 16.25 11.3125 16.25ZM11.3125 13.75C12 13.75 12.5887 13.505 13.0788 13.015C13.5679 12.5258 13.8125 11.9375 13.8125 11.25H8.8125C8.8125 11.9375 9.0575 12.5258 9.5475 13.015C10.0367 13.505 10.625 13.75 11.3125 13.75ZM1.3125 26.25V22.75C1.3125 22.0625 1.48958 21.4167 1.84375 20.8125C2.19792 20.2083 2.6875 19.75 3.3125 19.4375C4.375 18.8958 5.57292 18.4375 6.90625 18.0625C8.23958 17.6875 9.70833 17.5 11.3125 17.5C12.9167 17.5 14.3854 17.6875 15.7188 18.0625C17.0521 18.4375 18.25 18.8958 19.3125 19.4375C19.9375 19.75 20.4271 20.2083 20.7812 20.8125C21.1354 21.4167 21.3125 22.0625 21.3125 22.75V26.25H1.3125ZM3.8125 23.75H18.8125V22.75C18.8125 22.5208 18.7554 22.3125 18.6413 22.125C18.5263 21.9375 18.375 21.7917 18.1875 21.6875C17.4375 21.3125 16.4742 20.9375 15.2975 20.5625C14.12 20.1875 12.7917 20 11.3125 20C9.83333 20 8.50542 20.1875 7.32875 20.5625C6.15125 20.9375 5.1875 21.3125 4.4375 21.6875C4.25 21.7917 4.09917 21.9375 3.985 22.125C3.87 22.3125 3.8125 22.5208 3.8125 22.75V23.75Z" fill="#878787"/>
</g>
</svg>
