<svg width="30" height="30" viewBox="0 0 30 30" fill="none" xmlns="http://www.w3.org/2000/svg">
<mask id="mask0_7_288" style="mask-type:alpha" maskUnits="userSpaceOnUse" x="0" y="0" width="30" height="30">
<rect width="30" height="30" fill="#D9D9D9"/>
</mask>
<g mask="url(#mask0_7_288)">
<path d="M6.25 25V22.5H8.25L10.7188 14.2812C10.8854 13.7396 11.1925 13.3071 11.64 12.9838C12.0883 12.6613 12.5833 12.5 13.125 12.5H16.875C17.4167 12.5 17.9117 12.6613 18.36 12.9838C18.8075 13.3071 19.1146 13.7396 19.2812 14.2812L21.75 22.5H23.75V25H6.25ZM10.875 22.5H19.125L16.875 15H13.125L10.875 22.5ZM13.75 10V3.75H16.25V10H13.75ZM21.1875 13.0938L19.4062 11.3125L23.8438 6.90625L25.5938 8.65625L21.1875 13.0938ZM22.5 18.75V16.25H28.75V18.75H22.5ZM8.8125 13.0938L4.40625 8.65625L6.15625 6.90625L10.5938 11.3125L8.8125 13.0938ZM1.25 18.75V16.25H7.5V18.75H1.25Z" fill="#878787"/>
</g>
</svg>
