<svg width="110" height="110" viewBox="0 0 110 110" fill="none" xmlns="http://www.w3.org/2000/svg">
<mask id="mask0_248_1550" style="mask-type:alpha" maskUnits="userSpaceOnUse" x="0" y="0" width="110" height="110">
<rect width="110" height="110" fill="#D9D9D9"/>
</mask>
<g mask="url(#mask0_248_1550)">
<path d="M22.9167 87.0831H29.3333L75.3958 41.1352L72.1875 37.8123L68.8646 34.6039L22.9167 80.6664V87.0831ZM13.75 96.2498V76.7706L75.3958 15.2394C77.1528 13.4824 79.3115 12.6039 81.8721 12.6039C84.4296 12.6039 86.5868 13.4824 88.3437 15.2394L94.7604 21.7706C96.5174 23.5276 97.3958 25.6664 97.3958 28.1873C97.3958 30.7081 96.5174 32.847 94.7604 34.6039L33.2292 96.2498H13.75ZM75.3958 41.1352L72.1875 37.8123L68.8646 34.6039L75.3958 41.1352Z" fill="#FF0808"/>
</g>
</svg>
