<svg width="30" height="30" viewBox="0 0 30 30" fill="none" xmlns="http://www.w3.org/2000/svg">
<mask id="mask0_8_314" style="mask-type:alpha" maskUnits="userSpaceOnUse" x="0" y="0" width="30" height="30">
<rect width="30" height="30" fill="#D9D9D9"/>
</mask>
<g mask="url(#mask0_8_314)">
<path d="M5 26.25V11.25L15 3.75L25 11.25V26.25H5ZM7.5 12.5V22.5C8.5625 21.7083 9.72417 21.0938 10.985 20.6562C12.245 20.2188 13.5833 20 15 20C16.4167 20 17.7554 20.2188 19.0163 20.6562C20.2763 21.0938 21.4375 21.7083 22.5 22.5V12.5L15 6.875L7.5 12.5ZM15 18.75C13.9583 18.75 13.0729 18.3854 12.3438 17.6562C11.6146 16.9271 11.25 16.0417 11.25 15C11.25 13.9583 11.6146 13.0729 12.3438 12.3438C13.0729 11.6146 13.9583 11.25 15 11.25C16.0417 11.25 16.9271 11.6146 17.6562 12.3438C18.3854 13.0729 18.75 13.9583 18.75 15C18.75 16.0417 18.3854 16.9271 17.6562 17.6562C16.9271 18.3854 16.0417 18.75 15 18.75ZM15 16.25C15.3542 16.25 15.6513 16.13 15.8913 15.89C16.1304 15.6508 16.25 15.3542 16.25 15C16.25 14.6458 16.1304 14.3487 15.8913 14.1087C15.6513 13.8696 15.3542 13.75 15 13.75C14.6458 13.75 14.3492 13.8696 14.11 14.1087C13.87 14.3487 13.75 14.6458 13.75 15C13.75 15.3542 13.87 15.6508 14.11 15.89C14.3492 16.13 14.6458 16.25 15 16.25ZM10.1875 23.75H19.8125C19.0833 23.3333 18.3179 23.0208 17.5162 22.8125C16.7137 22.6042 15.875 22.5 15 22.5C14.125 22.5 13.2867 22.6042 12.485 22.8125C11.6825 23.0208 10.9167 23.3333 10.1875 23.75Z" fill="#878787"/>
</g>
</svg>
