<svg width="30" height="30" viewBox="0 0 30 30" fill="none" xmlns="http://www.w3.org/2000/svg">
<mask id="mask0_7_237" style="mask-type:alpha" maskUnits="userSpaceOnUse" x="0" y="-1" width="31" height="31">
<rect x="0.117676" y="-0.235413" width="30" height="30" fill="#D9D9D9"/>
</mask>
<g mask="url(#mask0_7_237)">
<path d="M15.1177 27.2646C14.576 27.2646 14.0864 27.1346 13.6489 26.8746C13.2114 26.6138 12.8677 26.2646 12.6177 25.8271C11.9302 25.8271 11.3418 25.5825 10.8527 25.0933C10.3627 24.6033 10.1177 24.0146 10.1177 23.3271V18.8896C8.88851 18.0771 7.90434 17.0042 7.16518 15.6708C6.42518 14.3375 6.05518 12.8896 6.05518 11.3271C6.05518 8.80625 6.93518 6.66542 8.69518 4.90459C10.456 3.14459 12.5968 2.26459 15.1177 2.26459C17.6385 2.26459 19.7789 3.14459 21.5389 4.90459C23.2998 6.66542 24.1802 8.80625 24.1802 11.3271C24.1802 12.9313 23.8106 14.3896 23.0714 15.7021C22.3314 17.0146 21.3468 18.0771 20.1177 18.8896V23.3271C20.1177 24.0146 19.8731 24.6033 19.3839 25.0933C18.8939 25.5825 18.3052 25.8271 17.6177 25.8271C17.3677 26.2646 17.0239 26.6138 16.5864 26.8746C16.1489 27.1346 15.6593 27.2646 15.1177 27.2646ZM12.6177 23.3271H17.6177V22.2021H12.6177V23.3271ZM12.6177 20.9521H17.6177V19.7646H12.6177V20.9521ZM12.3677 17.2646H14.1802V13.8896L11.4302 11.1396L12.7427 9.82709L15.1177 12.2021L17.4927 9.82709L18.8052 11.1396L16.0552 13.8896V17.2646H17.8677C18.9927 16.7229 19.9093 15.9258 20.6177 14.8733C21.326 13.8217 21.6802 12.6396 21.6802 11.3271C21.6802 9.49375 21.0448 7.94167 19.7739 6.67084C18.5031 5.4 16.951 4.76459 15.1177 4.76459C13.2843 4.76459 11.7323 5.4 10.4614 6.67084C9.19059 7.94167 8.55518 9.49375 8.55518 11.3271C8.55518 12.6396 8.90934 13.8217 9.61768 14.8733C10.326 15.9258 11.2427 16.7229 12.3677 17.2646Z" fill="#878787"/>
</g>
</svg>
