<svg width="30" height="30" viewBox="0 0 30 30" fill="none" xmlns="http://www.w3.org/2000/svg">
<mask id="mask0_248_1245" style="mask-type:alpha" maskUnits="userSpaceOnUse" x="0" y="0" width="30" height="30">
<rect width="30" height="30" fill="#D9D9D9"/>
</mask>
<g mask="url(#mask0_248_1245)">
<path d="M13.0625 19.375C13.5625 19.875 14.2083 20.1196 15 20.1087C15.7917 20.0987 16.375 19.8125 16.75 19.25L23.75 8.75L13.25 15.75C12.6875 16.125 12.3908 16.6979 12.36 17.4688C12.3283 18.2396 12.5625 18.875 13.0625 19.375ZM6.375 25C5.9375 25 5.52083 24.8958 5.125 24.6875C4.72917 24.4792 4.41667 24.1875 4.1875 23.8125C3.64583 22.875 3.22917 21.8804 2.9375 20.8288C2.64583 19.7763 2.5 18.6667 2.5 17.5C2.5 15.7708 2.82833 14.1508 3.485 12.64C4.14083 11.13 5.03667 9.80708 6.1725 8.67125C7.3075 7.53625 8.63542 6.64042 10.1562 5.98375C11.6771 5.32792 13.2917 5 15 5C16.2292 5 17.4117 5.17167 18.5475 5.515C19.6825 5.85917 20.75 6.375 21.75 7.0625L19.375 8.5625C18.6875 8.20833 17.9742 7.94292 17.235 7.76625C16.495 7.58875 15.75 7.5 15 7.5C12.2292 7.5 9.87 8.47375 7.9225 10.4212C5.97417 12.3696 5 14.7292 5 17.5C5 18.375 5.11958 19.2396 5.35875 20.0938C5.59875 20.9479 5.9375 21.75 6.375 22.5H23.625C24.1042 21.7083 24.4533 20.8854 24.6725 20.0312C24.8908 19.1771 25 18.2917 25 17.375C25 16.625 24.9117 15.8958 24.735 15.1875C24.5575 14.4792 24.2917 13.7917 23.9375 13.125L25.4375 10.75C26.0625 11.7292 26.5575 12.7708 26.9225 13.875C27.2867 14.9792 27.4792 16.125 27.5 17.3125C27.5208 18.5 27.3854 19.6354 27.0937 20.7188C26.8021 21.8021 26.375 22.8333 25.8125 23.8125C25.5833 24.1875 25.2708 24.4792 24.875 24.6875C24.4792 24.8958 24.0625 25 23.625 25H6.375Z" fill="#353595"/>
</g>
</svg>
