<svg width="30" height="30" viewBox="0 0 30 30" fill="none" xmlns="http://www.w3.org/2000/svg">
<mask id="mask0_7_247" style="mask-type:alpha" maskUnits="userSpaceOnUse" x="0" y="-1" width="31" height="31">
<rect x="0.117676" y="-0.235428" width="30" height="30" fill="#D9D9D9"/>
</mask>
<g mask="url(#mask0_7_247)">
<path d="M6.36768 26.0146C5.68018 26.0146 5.09143 25.77 4.60143 25.2808C4.11226 24.7908 3.86768 24.2021 3.86768 23.5146V6.01457C3.86768 5.32707 4.11226 4.73832 4.60143 4.24832C5.09143 3.75916 5.68018 3.51457 6.36768 3.51457H11.6177C11.9093 2.76457 12.3677 2.16041 12.9927 1.70207C13.6177 1.24374 14.326 1.01457 15.1177 1.01457C15.9093 1.01457 16.6177 1.24374 17.2427 1.70207C17.8677 2.16041 18.326 2.76457 18.6177 3.51457H23.8677C24.5552 3.51457 25.1439 3.75916 25.6339 4.24832C26.1231 4.73832 26.3677 5.32707 26.3677 6.01457V23.5146C26.3677 24.2021 26.1231 24.7908 25.6339 25.2808C25.1439 25.77 24.5552 26.0146 23.8677 26.0146H6.36768ZM15.1177 5.07707C15.3885 5.07707 15.6127 4.98832 15.7902 4.81082C15.9668 4.63416 16.0552 4.41041 16.0552 4.13957C16.0552 3.86874 15.9668 3.64457 15.7902 3.46707C15.6127 3.29041 15.3885 3.20207 15.1177 3.20207C14.8468 3.20207 14.6231 3.29041 14.4464 3.46707C14.2689 3.64457 14.1802 3.86874 14.1802 4.13957C14.1802 4.41041 14.2689 4.63416 14.4464 4.81082C14.6231 4.98832 14.8468 5.07707 15.1177 5.07707ZM6.36768 22.0771C7.49268 20.9729 8.80018 20.1029 10.2902 19.4671C11.7793 18.8321 13.3885 18.5146 15.1177 18.5146C16.8468 18.5146 18.4564 18.8321 19.9464 19.4671C21.4356 20.1029 22.7427 20.9729 23.8677 22.0771V6.01457H6.36768V22.0771ZM15.1177 16.0146C16.326 16.0146 17.3573 15.5875 18.2114 14.7333C19.0656 13.8792 19.4927 12.8479 19.4927 11.6396C19.4927 10.4312 19.0656 9.39999 18.2114 8.54582C17.3573 7.69166 16.326 7.26457 15.1177 7.26457C13.9093 7.26457 12.8781 7.69166 12.0239 8.54582C11.1698 9.39999 10.7427 10.4312 10.7427 11.6396C10.7427 12.8479 11.1698 13.8792 12.0239 14.7333C12.8781 15.5875 13.9093 16.0146 15.1177 16.0146ZM8.86768 23.5146H21.3677C21.3677 23.4521 21.3677 23.4 21.3677 23.3583C21.3677 23.3167 21.3677 23.2646 21.3677 23.2021C20.4927 22.4729 19.5239 21.9262 18.4614 21.5621C17.3989 21.1971 16.2843 21.0146 15.1177 21.0146C13.951 21.0146 12.8364 21.1971 11.7739 21.5621C10.7114 21.9262 9.74268 22.4729 8.86768 23.2021C8.86768 23.2646 8.86768 23.3167 8.86768 23.3583C8.86768 23.4 8.86768 23.4521 8.86768 23.5146ZM15.1177 13.5146C14.5968 13.5146 14.1543 13.3321 13.7902 12.9671C13.4252 12.6029 13.2427 12.1604 13.2427 11.6396C13.2427 11.1187 13.4252 10.6762 13.7902 10.3121C14.1543 9.94707 14.5968 9.76457 15.1177 9.76457C15.6385 9.76457 16.081 9.94707 16.4452 10.3121C16.8102 10.6762 16.9927 11.1187 16.9927 11.6396C16.9927 12.1604 16.8102 12.6029 16.4452 12.9671C16.081 13.3321 15.6385 13.5146 15.1177 13.5146Z" fill="#878787"/>
</g>
</svg>
